name Walk3.mot
datacolumns 19
datarows 22
range 2.08500000 2.19000000
endheader

                time	   L_ground_force_vx	   L_ground_force_vy	   L_ground_force_vz	   L_ground_force_px	   L_ground_force_py	   L_ground_force_pz	   R_ground_force_vx	   R_ground_force_vy	   R_ground_force_vz	   R_ground_force_px	   R_ground_force_py	   R_ground_force_pz	   L_ground_torque_x	   L_ground_torque_y	   L_ground_torque_z	   R_ground_torque_x	   R_ground_torque_y	   R_ground_torque_z	
          2.08500000	          0.00676764	          0.02401686	         -0.00171766	         -0.00020415	          0.00000000	         -0.00004714	        -31.33136171	        553.38123162	        -42.25148820	          0.20678946	          0.00000000	          0.11308692	          0.00000000	          0.00014939	          0.00000000	          0.00000000	          1.99697288	          0.00000000	
          2.09000000	          0.00239855	          0.00969772	         -0.00147076	         -0.00015285	          0.00000000	         -0.00003588	        -28.96510185	        546.48484701	        -41.75333190	          0.20854854	          0.00000000	          0.11362207	          0.00000000	          0.00011611	          0.00000000	          0.00000000	          1.95340915	          0.00000000	
          2.09500000	         -0.00059296	         -0.00025183	         -0.00119610	         -0.00010787	          0.00000000	         -0.00002583	        -26.69366711	        540.14096597	        -41.23669989	          0.21027714	          0.00000000	          0.11414004	          0.00000000	          0.00008558	          0.00000000	          0.00000000	          1.90495253	          0.00000000	
          2.10000000	         -0.00246446	         -0.00661237	         -0.00092537	         -0.00007049	          0.00000000	         -0.00001734	        -24.51526348	        534.35534094	        -40.70717412	          0.21196826	          0.00000000	          0.11463885	          0.00000000	          0.00005924	          0.00000000	          0.00000000	          1.85418852	          0.00000000	
          2.10500000	         -0.00346971	         -0.01016831	         -0.00067857	         -0.00004095	          0.00000000	         -0.00001052	        -22.42426547	        529.12398105	        -40.17131134	          0.21361650	          0.00000000	          0.11511810	          0.00000000	          0.00003766	          0.00000000	          0.00000000	          1.80291943	          0.00000000	
          2.11000000	         -0.00383994	         -0.01164447	         -0.00046664	         -0.00001876	          0.00000000	         -0.00000532	        -20.41219663	        524.43660272	        -39.63812341	          0.21521793	          0.00000000	          0.11557693	          0.00000000	          0.00002084	          0.00000000	          0.00000000	          1.75215837	          0.00000000	
          2.11500000	         -0.00377367	         -0.01167016	         -0.00029382	         -0.00000305	          0.00000000	         -0.00000156	        -18.46892581	        520.27860943	        -39.11976911	          0.21676928	          0.00000000	          0.11601205	          0.00000000	          0.00000841	          0.00000000	          0.00000000	          1.70230991	          0.00000000	
          2.12000000	         -0.00343272	         -0.01076367	         -0.00015976	          0.00000727	          0.00000000	          0.00000097	        -16.58302980	        516.63551080	        -38.63081744	          0.21826842	          0.00000000	          0.11642031	          0.00000000	         -0.00000023	          0.00000000	          0.00000000	          1.65352129	          0.00000000	
          2.12500000	         -0.00294259	         -0.00933108	         -0.00006116	          0.00001331	          0.00000000	          0.00000252	        -14.74346328	        513.49641774	        -38.18660585	          0.21971603	          0.00000000	          0.11680094	          0.00000000	         -0.00000575	          0.00000000	          0.00000000	          1.60553986	          0.00000000	
          2.13000000	         -0.00239556	         -0.00767441	          0.00000691	          0.00001613	          0.00000000	          0.00000331	        -12.94138009	        510.85279949	        -37.80175537	          0.22111596	          0.00000000	          0.11715348	          0.00000000	         -0.00000884	          0.00000000	          0.00000000	          1.55761805	          0.00000000	
          2.13500000	         -0.00185530	         -0.00600507	          0.00005002	          0.00001666	          0.00000000	          0.00000356	        -11.17093683	        508.69671799	        -37.48800038	          0.22247122	          0.00000000	          0.11747707	          0.00000000	         -0.00001012	          0.00000000	          0.00000000	          1.50881030	          0.00000000	
          2.14000000	         -0.00136210	         -0.00445963	          0.00007371	          0.00001569	          0.00000000	          0.00000344	         -9.42978546	        507.02054517	        -37.25283072	          0.22378297	          0.00000000	          0.11777144	          0.00000000	         -0.00001014	          0.00000000	          0.00000000	          1.45818503	          0.00000000	
          2.14500000	         -0.00093810	         -0.00311586	          0.00008307	          0.00001382	          0.00000000	          0.00000308	         -7.71876381	        505.81653858	        -37.09961994	          0.22505318	          0.00000000	          0.11803645	          0.00000000	         -0.00000935	          0.00000000	          0.00000000	          1.40521304	          0.00000000	
          2.15000000	         -0.00059201	         -0.00200770	          0.00008250	          0.00001153	          0.00000000	          0.00000262	         -6.04171731	        505.07839813	        -37.02826472	          0.22628564	          0.00000000	          0.11827309	          0.00000000	         -0.00000810	          0.00000000	          0.00000000	          1.35024049	          0.00000000	
          2.15500000	         -0.00032324	         -0.00113827	          0.00007561	          0.00000915	          0.00000000	          0.00000211	         -4.40533043	        504.80201022	        -37.03582760	          0.22748545	          0.00000000	          0.11848315	          0.00000000	         -0.00000666	          0.00000000	          0.00000000	          1.29433440	          0.00000000	
          2.16000000	         -0.00012532	         -0.00049071	          0.00006521	          0.00000690	          0.00000000	          0.00000162	         -2.81778156	        504.98361257	        -37.11798774	          0.22865915	          0.00000000	          0.11866751	          0.00000000	         -0.00000521	          0.00000000	          0.00000000	          1.23889752	          0.00000000	
          2.16500000	          0.00001151	         -0.00003662	          0.00005339	          0.00000491	          0.00000000	          0.00000117	         -1.28672033	        505.61946318	        -37.26967115	          0.22981222	          0.00000000	          0.11882730	          0.00000000	         -0.00000387	          0.00000000	          0.00000000	          1.18542784	          0.00000000	
          2.17000000	          0.00009835	          0.00025747	          0.00004158	          0.00000325	          0.00000000	          0.00000080	          0.18253718	        506.70773349	        -37.48604533	          0.23095230	          0.00000000	          0.11896415	          0.00000000	         -0.00000271	          0.00000000	          0.00000000	          1.13504422	          0.00000000	
          2.17500000	          0.00014626	          0.00042570	          0.00003072	          0.00000192	          0.00000000	          0.00000049	          1.58860973	        508.24758895	        -37.76318632	          0.23208648	          0.00000000	          0.11907847	          0.00000000	         -0.00000174	          0.00000000	          0.00000000	          1.08890221	          0.00000000	
          2.18000000	          0.00016541	          0.00049992	          0.00002133	          0.00000092	          0.00000000	          0.00000026	          2.93453949	        510.23771006	        -38.09736188	          0.23321909	          0.00000000	          0.11917008	          0.00000000	         -0.00000099	          0.00000000	          0.00000000	          1.04812559	          0.00000000	
          2.18500000	          0.00016462	          0.00050797	          0.00001362	          0.00000021	          0.00000000	          0.00000009	          4.22713526	        512.67708264	        -38.48401808	          0.23435412	          0.00000000	          0.11923827	          0.00000000	         -0.00000043	          0.00000000	          0.00000000	          1.01343617	          0.00000000	
          2.19000000	          0.00015108	          0.00047296	          0.00000760	         -0.00000027	          0.00000000	         -0.00000003	          5.47643250	        515.56551736	        -38.91749567	          0.23549481	          0.00000000	          0.11928135	          0.00000000	         -0.00000003	          0.00000000	          0.00000000	          0.98503657	          0.00000000	
